<?xml version="1.0" encoding="UTF-8" standalone="no"?>
<svg
   xmlns:dc="http://purl.org/dc/elements/1.1/"
   xmlns:cc="http://creativecommons.org/ns#"
   xmlns:rdf="http://www.w3.org/1999/02/22-rdf-syntax-ns#"
   xmlns:svg="http://www.w3.org/2000/svg"
   xmlns="http://www.w3.org/2000/svg"
   xmlns:sodipodi="http://sodipodi.sourceforge.net/DTD/sodipodi-0.dtd"
   xmlns:inkscape="http://www.inkscape.org/namespaces/inkscape"
   width="32mm"
   height="32mm"
   viewBox="0 0 32 32"
   version="1.1"
   id="svg8"
   inkscape:version="1.0.1 (3bc2e813f5, 2020-09-07)"
   sodipodi:docname="confused.svg">
  <defs
     id="defs2" />
  <sodipodi:namedview
     id="base"
     pagecolor="#ffffff"
     bordercolor="#666666"
     borderopacity="1.0"
     inkscape:pageopacity="0.0"
     inkscape:pageshadow="2"
     inkscape:zoom="2.8"
     inkscape:cx="52.770475"
     inkscape:cy="81.703403"
     inkscape:document-units="mm"
     inkscape:current-layer="layer1"
     inkscape:document-rotation="0"
     showgrid="false"
     width="32mm"
     inkscape:window-width="1423"
     inkscape:window-height="967"
     inkscape:window-x="52"
     inkscape:window-y="4"
     inkscape:window-maximized="0" />
  <metadata
     id="metadata5">
    <rdf:RDF>
      <cc:Work
         rdf:about="">
        <dc:format>image/svg+xml</dc:format>
        <dc:type
           rdf:resource="http://purl.org/dc/dcmitype/StillImage" />
        <dc:title />
      </cc:Work>
    </rdf:RDF>
  </metadata>
  <g
     inkscape:label="Layer 1"
     inkscape:groupmode="layer"
     id="layer1">
    <g
       aria-label="?"
       transform="scale(1.0037994,0.99621498)"
       id="text916"
       style="font-size:25.443px;line-height:1.25;font-family:Arial;-inkscape-font-specification:Arial;stroke:#ffffff;stroke-width:0.52916667;stroke-miterlimit:4;stroke-dasharray:none">
      <path
         d="m 14.73681,19.042371 q -0.01242,-0.44724 -0.01242,-0.67086 0,-1.316874 0.3727,-2.273472 0.273313,-0.720553 0.882057,-1.45353 0.44724,-0.534204 1.602611,-1.552918 1.167794,-1.031137 1.515647,-1.639881 0.347854,-0.608743 0.347854,-1.329297 0,-1.3044509 -1.018714,-2.2858948 -1.018714,-0.9938672 -2.497091,-0.9938672 -1.428684,0 -2.385282,0.8944805 -0.956597,0.8944804 -1.254757,2.7952515 L 9.9910941,10.25907 q 0.3105839,-2.5467852 1.8386539,-3.9009293 1.540495,-1.3541441 4.062433,-1.3541441 2.671018,0 4.261205,1.4535308 1.590188,1.4535308 1.590188,3.5158053 0,1.1926403 -0.55905,2.1989313 -0.559051,1.00629 -2.186508,2.447398 -1.093254,0.96902 -1.428684,1.428684 -0.335431,0.459664 -0.496934,1.055984 -0.161503,0.59632 -0.18635,1.938041 z m -0.136657,4.484826 v -2.546785 h 2.546785 v 2.546785 z"
         style="stroke:#ffffff;stroke-width:0.52916667;stroke-miterlimit:4;stroke-dasharray:none"
         id="path1533" />
    </g>
    <g
       aria-label="?"
       transform="matrix(0.94691487,-0.33122946,0.32741208,0.94153287,0,0)"
       id="text916-9"
       style="font-size:16.9796px;line-height:1.25;font-family:Arial;-inkscape-font-specification:Arial;fill:#000000;stroke:#ffffff;stroke-width:0.52916667;stroke-miterlimit:4;stroke-dasharray:none">
      <path
         d="m 0.21585729,25.156084 q -0.008291,-0.298469 -0.008291,-0.447704 0,-0.878827 0.24872462,-1.51722 0.18239806,-0.480868 0.58864829,-0.970026 0.2984695,-0.356505 1.0695158,-1.036353 0.7793372,-0.688138 1.0114802,-1.094388 0.232143,-0.40625 0.232143,-0.887118 0,-0.870536 -0.6798473,-1.525511 -0.6798473,-0.663266 -1.666455,-0.663266 -0.95344438,0 -1.59183758,0.59694 -0.63839322,0.596939 -0.83737292,1.865434 l -1.5338018,-0.182398 q 0.2072705,-1.699618 1.2270414,-2.603318 1.02806183,-0.903699 2.71109844,-0.903699 1.78252646,0 2.84375146,0.970026 1.0612251,0.970026 1.0612251,2.346302 0,0.795919 -0.3730869,1.467476 -0.373087,0.671556 -1.4591845,1.633291 -0.7295922,0.646684 -0.9534444,0.953445 -0.2238521,0.30676 -0.3316328,0.704719 -0.1077807,0.39796 -0.1243623,1.293368 z m -0.091199,2.992987 V 26.449452 H 1.8242765 v 1.699619 z"
         style="fill:#000000;stroke:#ffffff;stroke-width:0.52916667;stroke-miterlimit:4;stroke-dasharray:none"
         id="path1530" />
    </g>
    <g
       aria-label="?"
       transform="matrix(0.90353603,0.43606642,-0.43354267,0.89752547,0,0)"
       id="text916-9-4"
       style="font-size:16.9796px;line-height:1.25;font-family:Arial;-inkscape-font-specification:Arial;stroke:#ffffff;stroke-width:0.52916667;stroke-miterlimit:4;stroke-dasharray:none">
      <path
         d="m 29.44273,11.353976 q -0.0083,-0.29847 -0.0083,-0.447705 0,-0.878827 0.248725,-1.5172198 0.182398,-0.4808676 0.588648,-0.9700261 0.29847,-0.3565053 1.069516,-1.0363526 0.779337,-0.6881381 1.01148,-1.0943883 0.232143,-0.4062502 0.232143,-0.8871178 0,-0.8705362 -0.679847,-1.525511 -0.679847,-0.6632657 -1.666455,-0.6632657 -0.953444,0 -1.591838,0.5969391 -0.638393,0.5969391 -0.837372,1.8654347 L 26.275637,5.4923654 q 0.20727,-1.6996182 1.227041,-2.6033177 1.028062,-0.9036995 2.711099,-0.9036995 1.782526,0 2.843751,0.9700261 1.061225,0.970026 1.061225,2.3463022 0,0.7959188 -0.373087,1.4674753 -0.373087,0.6715565 -1.459184,1.6332917 -0.729592,0.646684 -0.953445,0.9534444 -0.223852,0.3067603 -0.331632,0.7047201 -0.107781,0.397959 -0.124363,1.293368 z m -0.0912,2.992986 v -1.699618 h 1.699618 v 1.699618 z"
         style="stroke:#ffffff;stroke-width:0.52916667;stroke-miterlimit:4;stroke-dasharray:none"
         id="path1536" />
    </g>
  </g>
</svg>
