<?xml version="1.0" encoding="UTF-8" standalone="no"?>
<svg
   xmlns:dc="http://purl.org/dc/elements/1.1/"
   xmlns:cc="http://creativecommons.org/ns#"
   xmlns:rdf="http://www.w3.org/1999/02/22-rdf-syntax-ns#"
   xmlns:svg="http://www.w3.org/2000/svg"
   xmlns="http://www.w3.org/2000/svg"
   xmlns:sodipodi="http://sodipodi.sourceforge.net/DTD/sodipodi-0.dtd"
   xmlns:inkscape="http://www.inkscape.org/namespaces/inkscape"
   width="32mm"
   height="32mm"
   viewBox="0 0 32 32"
   version="1.1"
   id="svg8"
   inkscape:version="1.0.1 (3bc2e813f5, 2020-09-07)"
   sodipodi:docname="unconcious.svg">
  <defs
     id="defs2" />
  <sodipodi:namedview
     id="base"
     pagecolor="#ffffff"
     bordercolor="#666666"
     borderopacity="1.0"
     inkscape:pageopacity="0.0"
     inkscape:pageshadow="2"
     inkscape:zoom="11.2"
     inkscape:cx="49.143805"
     inkscape:cy="74.459766"
     inkscape:document-units="mm"
     inkscape:current-layer="layer1"
     inkscape:document-rotation="0"
     showgrid="false"
     width="32mm"
     inkscape:window-width="1346"
     inkscape:window-height="846"
     inkscape:window-x="52"
     inkscape:window-y="125"
     inkscape:window-maximized="0" />
  <metadata
     id="metadata5">
    <rdf:RDF>
      <cc:Work
         rdf:about="">
        <dc:format>image/svg+xml</dc:format>
        <dc:type
           rdf:resource="http://purl.org/dc/dcmitype/StillImage" />
        <dc:title />
      </cc:Work>
    </rdf:RDF>
  </metadata>
  <g
     inkscape:label="Layer 1"
     inkscape:groupmode="layer"
     id="layer1">
    <g
       aria-label="Z"
       transform="matrix(1.1195369,0,0,1.1243699,-1.6968834,-3.992768)"
       id="text956"
       style="font-size:6.58484px;line-height:1.25;font-family:Arial;-inkscape-font-specification:Arial;stroke:#ffffff;stroke-width:0.471649;stroke-miterlimit:4;stroke-dasharray:none">
      <path
         d="m 10.649172,25.824303 0.154332,-0.742724 2.333853,-2.846934 h -1.8584 c -0.256968,-0.282025 0.17509,-0.880922 0.543799,-1.123904 h 3.398523 l -0.141471,0.739508 -2.320588,2.908247 c 0.291516,-0.0064 0.504794,-0.0096 0.504794,-0.0096 0.205777,0 0.489791,-0.0021 0.852043,-0.0064 h 1.112478 c 0.185861,0.26051 -0.03254,0.815013 -0.586001,1.081884 z"
         style="font-style:italic;font-variant:normal;font-weight:bold;font-stretch:normal;font-family:Arial;-inkscape-font-specification:'Arial Bold Italic';stroke:#ffffff;stroke-width:0.471649;stroke-miterlimit:4;stroke-dasharray:none"
         id="path1591"
         sodipodi:nodetypes="ccccccccscccc" />
    </g>
    <g
       aria-label="Z"
       transform="matrix(0.99866548,0,0,1.0013363,-0.54029832,-0.66352542)"
       id="text956-5"
       style="font-size:11.6199px;line-height:1.25;font-family:Arial;-inkscape-font-specification:Arial;stroke:#ffffff;stroke-width:0.52916667;stroke-miterlimit:4;stroke-dasharray:none">
      <path
         d="m 17.32087,21.172646 0.272341,-1.310643 4.78867,-5.617041 h -3.875192 c -0.224598,-0.439229 -0.754845,-0.855485 0.289363,-1.390076 h 5.997185 l -0.249646,1.304969 -4.839734,5.651084 c 0.514423,-0.01135 0.81135,-0.01702 0.890783,-0.01702 0.363122,0 0.864306,-0.0038 1.503552,-0.01135 h 1.963127 c 0.326129,0.484494 0.844322,0.978594 -0.289362,1.390076 z"
         style="font-style:italic;font-variant:normal;font-weight:bold;font-stretch:normal;font-family:Arial;-inkscape-font-specification:'Arial Bold Italic';stroke:#ffffff;stroke-width:0.52916667;stroke-miterlimit:4;stroke-dasharray:none"
         id="path1588"
         sodipodi:nodetypes="ccccccccscccc" />
    </g>
    <g
       aria-label="Z"
       transform="matrix(0.99914962,0,0,1.0008511,-0.54029832,-0.66352542)"
       id="text956-5-2"
       style="font-size:15.944px;line-height:1.25;font-family:Arial;-inkscape-font-specification:Arial;stroke:#ffffff;stroke-width:0.52916667;stroke-miterlimit:4;stroke-dasharray:none">
      <path
         d="M 9.0240228,17.055752 9.3977103,15.257381 15.968382,7.5500759 H 10.65112 C 10.264767,6.9434371 9.634594,6.3505001 11.048163,5.6427126 h 8.228911 l -0.342547,1.7905859 -6.640739,7.7540155 c 0.705855,-0.01557 1.113278,-0.02336 1.22227,-0.02336 0.49825,0 1.185939,-0.0052 2.063066,-0.01557 h 2.693665 c 0.642918,0.505081 1.1455,1.033822 -0.397043,1.907364 z"
         style="font-style:italic;font-variant:normal;font-weight:bold;font-stretch:normal;font-family:Arial;-inkscape-font-specification:'Arial Bold Italic';stroke:#ffffff;stroke-width:0.52916667;stroke-miterlimit:4;stroke-dasharray:none"
         id="path1585"
         sodipodi:nodetypes="ccccccccscccc" />
    </g>
  </g>
</svg>
