<?xml version="1.0" encoding="UTF-8" standalone="no"?>
<svg
   xmlns:dc="http://purl.org/dc/elements/1.1/"
   xmlns:cc="http://creativecommons.org/ns#"
   xmlns:rdf="http://www.w3.org/1999/02/22-rdf-syntax-ns#"
   xmlns:svg="http://www.w3.org/2000/svg"
   xmlns="http://www.w3.org/2000/svg"
   xmlns:sodipodi="http://sodipodi.sourceforge.net/DTD/sodipodi-0.dtd"
   xmlns:inkscape="http://www.inkscape.org/namespaces/inkscape"
   width="32mm"
   height="32mm"
   viewBox="0 0 32 32"
   version="1.1"
   id="svg8"
   inkscape:version="1.0.1 (3bc2e813f5, 2020-09-07)"
   sodipodi:docname="fall.svg">
  <defs
     id="defs2" />
  <sodipodi:namedview
     id="base"
     pagecolor="#ffffff"
     bordercolor="#666666"
     borderopacity="1.0"
     inkscape:pageopacity="0.0"
     inkscape:pageshadow="2"
     inkscape:zoom="3.959798"
     inkscape:cx="46.031093"
     inkscape:cy="71.523258"
     inkscape:document-units="mm"
     inkscape:current-layer="layer1"
     inkscape:document-rotation="0"
     showgrid="false"
     width="32mm"
     inkscape:window-width="1346"
     inkscape:window-height="967"
     inkscape:window-x="52"
     inkscape:window-y="4"
     inkscape:window-maximized="0" />
  <metadata
     id="metadata5">
    <rdf:RDF>
      <cc:Work
         rdf:about="">
        <dc:format>image/svg+xml</dc:format>
        <dc:type
           rdf:resource="http://purl.org/dc/dcmitype/StillImage" />
        <dc:title></dc:title>
      </cc:Work>
    </rdf:RDF>
  </metadata>
  <g
     inkscape:label="Layer 1"
     inkscape:groupmode="layer"
     id="layer1">
    <ellipse
       style="fill:#000000;stroke:#ffffff;stroke-width:0.529166;stroke-linecap:round;stroke-linejoin:round;stroke-miterlimit:4;stroke-dasharray:none"
       id="path878"
       cx="11.470554"
       cy="13.619757"
       rx="2.9504981"
       ry="2.9574237" />
    <path
       style="fill:#000000;stroke:#ffffff;stroke-width:0.529166;stroke-linecap:butt;stroke-linejoin:miter;stroke-miterlimit:4;stroke-dasharray:none;stroke-opacity:1"
       d="m 5.1336302,17.349895 c -2.2775712,0.0071 -2.289509,3.006277 0,3.015412 h 7.4051718 l 5.322468,5.450938 c 0.55868,0.369242 1.135866,0.673562 1.909146,0.289943 l 4.281113,-2.029604 2.198411,2.087593 c 1.881738,1.684611 3.664683,-1.016263 2.314116,-2.087593 l -3.702586,-3.479321 -2.314115,0.405921 1.446322,-2.609492 3.644732,0.05799 c 2.102597,0.02814 2.566905,-2.986316 0,-3.189376 L 23.530853,15.08834 c -0.714971,0.164825 -1.340273,-0.299514 -2.256263,1.275751 l -1.619881,2.725468 -2.487676,-2.783458 1.793442,-3.653287 -0.347118,-6.900657 C 18.502686,3.8170601 15.838062,3.8296796 15.778565,5.86814 l 0.231412,6.262779 -1.677734,3.015413 -2.603381,2.377536 z"
       id="path880"
       sodipodi:nodetypes="cccccccccccccccccccccccc" />
  </g>
</svg>
