<?xml version="1.0" encoding="UTF-8" standalone="no"?>
<svg
   xmlns:dc="http://purl.org/dc/elements/1.1/"
   xmlns:cc="http://creativecommons.org/ns#"
   xmlns:rdf="http://www.w3.org/1999/02/22-rdf-syntax-ns#"
   xmlns:svg="http://www.w3.org/2000/svg"
   xmlns="http://www.w3.org/2000/svg"
   xmlns:sodipodi="http://sodipodi.sourceforge.net/DTD/sodipodi-0.dtd"
   xmlns:inkscape="http://www.inkscape.org/namespaces/inkscape"
   width="32mm"
   height="32mm"
   viewBox="0 0 32 32"
   version="1.1"
   id="svg8"
   inkscape:version="1.0.1 (3bc2e813f5, 2020-09-07)"
   sodipodi:docname="scared.svg">
  <defs
     id="defs2" />
  <sodipodi:namedview
     id="base"
     pagecolor="#ffffff"
     bordercolor="#666666"
     borderopacity="1.0"
     inkscape:pageopacity="0.0"
     inkscape:pageshadow="2"
     inkscape:zoom="2.5264336"
     inkscape:cx="40.608583"
     inkscape:cy="21.294311"
     inkscape:document-units="mm"
     inkscape:current-layer="layer1"
     inkscape:document-rotation="0"
     showgrid="false"
     width="32mm"
     inkscape:window-width="1346"
     inkscape:window-height="967"
     inkscape:window-x="52"
     inkscape:window-y="4"
     inkscape:window-maximized="0"
     showguides="false" />
  <metadata
     id="metadata5">
    <rdf:RDF>
      <cc:Work
         rdf:about="">
        <dc:format>image/svg+xml</dc:format>
        <dc:type
           rdf:resource="http://purl.org/dc/dcmitype/StillImage" />
        <dc:title></dc:title>
      </cc:Work>
    </rdf:RDF>
  </metadata>
  <g
     inkscape:label="Layer 1"
     inkscape:groupmode="layer"
     id="layer1">
    <ellipse
       style="fill:#000000;stroke:#ffffff;stroke-width:0.529167;stroke-linecap:round;stroke-linejoin:round;stroke-miterlimit:4;stroke-dasharray:none"
       id="path910"
       cx="22.125982"
       cy="9.4487743"
       rx="4.155498"
       ry="4.1495514" />
    <path
       style="fill:#000000;stroke:#ffffff;stroke-width:0.529167;stroke-linecap:butt;stroke-linejoin:miter;stroke-miterlimit:4;stroke-dasharray:none;stroke-opacity:1"
       d="M 19.902192,14.074896 17.248523,10.552479 14.865998,6.5637703 18.972719,4.9488031 C 20.140043,4.524496 19.382292,1.3714566 17.339996,1.9795819 l -5.158549,2.0604667 c 0,0 -1.725977,0.9885072 -1.002233,2.9615121 l 2.653479,4.5957193 -5.201994,4.653186 c 0,0 -2.0710506,2.546289 -0.3902681,5.835803 l 2.0702171,2.601226 -3.4582582,2.192076 c -2.7485149,1.993118 -0.1127128,4.218685 2.2339279,2.74461 l 4.3561073,-2.74729 c 0,0 1.868683,-1.165068 0.917076,-3.033466 -0.144668,-0.284042 -1.828401,-2.56155 -1.489519,-2.195715 l 3.351415,2.054997 -2.377751,3.896366 c -0.918654,1.65895 1.780017,4.000061 3.381716,1.223815 l 2.693909,-4.464346 c 0.564258,-1.006717 0.721976,-1.996159 -0.687806,-2.918995 l -3.954889,-2.518348 2.105297,-1.806063 1.926326,3.877275 c 0.581365,0.954343 2.829063,1.046494 3.617067,-0.35883 l 1.801633,-3.755095 c 0.671993,-2.05573 -1.810873,-3.035929 -2.755892,-1.578233 l -0.885272,1.910198 z"
       id="path914"
       sodipodi:nodetypes="ccccccccccccccscccccccccccccc" />
    <path
       id="path916"
       style="fill:#ffffff;stroke:none;stroke-width:0.529167;stroke-linecap:round;stroke-linejoin:round;stroke-miterlimit:4;stroke-dasharray:none"
       d="M 21.73646,12.621663 A 1.8790575,1.7266503 44.163654 0 0 21.479459,10.228027 1.8790575,1.7266503 44.163654 0 0 19.079428,10.000673 Z" />
  </g>
</svg>
