<?xml version="1.0" encoding="UTF-8" standalone="no"?>
<svg
   xmlns:dc="http://purl.org/dc/elements/1.1/"
   xmlns:cc="http://creativecommons.org/ns#"
   xmlns:rdf="http://www.w3.org/1999/02/22-rdf-syntax-ns#"
   xmlns:svg="http://www.w3.org/2000/svg"
   xmlns="http://www.w3.org/2000/svg"
   xmlns:sodipodi="http://sodipodi.sourceforge.net/DTD/sodipodi-0.dtd"
   xmlns:inkscape="http://www.inkscape.org/namespaces/inkscape"
   width="32mm"
   height="32mm"
   viewBox="0 0 32 32"
   version="1.1"
   id="svg8"
   inkscape:version="1.0.1 (3bc2e813f5, 2020-09-07)"
   sodipodi:docname="shaky.svg">
  <defs
     id="defs2" />
  <sodipodi:namedview
     id="base"
     pagecolor="#ffffff"
     bordercolor="#666666"
     borderopacity="1.0"
     inkscape:pageopacity="0.0"
     inkscape:pageshadow="2"
     inkscape:zoom="5.0528673"
     inkscape:cx="69.316951"
     inkscape:cy="66.261804"
     inkscape:document-units="mm"
     inkscape:current-layer="layer1"
     inkscape:document-rotation="0"
     showgrid="true"
     width="32mm"
     inkscape:window-width="1346"
     inkscape:window-height="967"
     inkscape:window-x="52"
     inkscape:window-y="4"
     inkscape:window-maximized="0"
     showguides="false">
    <inkscape:grid
       type="xygrid"
       id="grid1108" />
  </sodipodi:namedview>
  <metadata
     id="metadata5">
    <rdf:RDF>
      <cc:Work
         rdf:about="">
        <dc:format>image/svg+xml</dc:format>
        <dc:type
           rdf:resource="http://purl.org/dc/dcmitype/StillImage" />
        <dc:title></dc:title>
      </cc:Work>
    </rdf:RDF>
  </metadata>
  <g
     inkscape:label="Layer 1"
     inkscape:groupmode="layer"
     id="layer1">
    <path
       id="path1116-8"
       style="fill:none;stroke:#ffffff;stroke-width:1.5875;stroke-linecap:round;stroke-linejoin:round;stroke-opacity:1;stroke-miterlimit:4;stroke-dasharray:none"
       d="m 15.875,7.9375 c 0,0 2.645833,-3.9687497 6.614583,0 3.968751,3.968751 6.614584,0 6.614584,0 m -26.4583337,0 c 0,0 2.6458333,-3.9687498 6.6145833,0 3.9687504,3.968751 6.6145834,0 6.6145834,0" />
    <path
       id="path1116-8-2"
       style="fill:none;stroke:#ffffff;stroke-width:1.5875;stroke-linecap:round;stroke-linejoin:round;stroke-opacity:1;stroke-miterlimit:4;stroke-dasharray:none"
       d="m 15.875,15.875 c 0,0 2.645833,3.96875 6.614583,0 3.968751,-3.968751 6.614585,0 6.614585,0 m -26.4583347,0 c 0,0 2.6458335,3.96875 6.6145837,0 3.96875,-3.968751 6.614583,0 6.614583,0" />
    <path
       id="path1116-8-2-4"
       style="fill:none;stroke:#ffffff;stroke-width:1.5875;stroke-linecap:round;stroke-linejoin:round;stroke-opacity:1;stroke-miterlimit:4;stroke-dasharray:none"
       d="m 15.875,23.8125 c 0,0 2.645833,-3.96875 6.614583,0 3.968751,3.968751 6.614585,0 6.614585,0 m -26.4583352,0 c 0,0 2.6458334,-3.96875 6.6145832,0 3.968751,3.968751 6.614584,0 6.614584,0" />
  </g>
</svg>
