<?xml version="1.0" encoding="UTF-8" standalone="no"?>
<svg
   xmlns:dc="http://purl.org/dc/elements/1.1/"
   xmlns:cc="http://creativecommons.org/ns#"
   xmlns:rdf="http://www.w3.org/1999/02/22-rdf-syntax-ns#"
   xmlns:svg="http://www.w3.org/2000/svg"
   xmlns="http://www.w3.org/2000/svg"
   xmlns:sodipodi="http://sodipodi.sourceforge.net/DTD/sodipodi-0.dtd"
   xmlns:inkscape="http://www.inkscape.org/namespaces/inkscape"
   width="640"
   height="480"
   viewBox="0 0 169.33333 127"
   version="1.1"
   id="svg8"
   inkscape:version="1.0.1 (3bc2e813f5, 2020-09-07)"
   sodipodi:docname="ship template.svg"
   inkscape:export-filename="F:\C# Projects\TrekSharp\TrekSharp.AdventureTools\wwwroot\assets\artwork\ships\ConstitutionClass.png"
   inkscape:export-xdpi="300"
   inkscape:export-ydpi="300">
  <defs
     id="defs2" />
  <sodipodi:namedview
     id="base"
     pagecolor="#ffffff"
     bordercolor="#666666"
     borderopacity="1.0"
     inkscape:pageopacity="0.0"
     inkscape:pageshadow="2"
     inkscape:zoom="5.6"
     inkscape:cx="-207.59265"
     inkscape:cy="-749.97614"
     inkscape:document-units="mm"
     inkscape:current-layer="layer1"
     inkscape:document-rotation="0"
     showgrid="false"
     units="px"
     inkscape:window-width="1680"
     inkscape:window-height="987"
     inkscape:window-x="-8"
     inkscape:window-y="-8"
     inkscape:window-maximized="1"
     showguides="false" />
  <metadata
     id="metadata5">
    <rdf:RDF>
      <cc:Work
         rdf:about="">
        <dc:format>image/svg+xml</dc:format>
        <dc:type
           rdf:resource="http://purl.org/dc/dcmitype/StillImage" />
        <dc:title />
      </cc:Work>
    </rdf:RDF>
  </metadata>
  <g
     inkscape:label="Layer 1"
     inkscape:groupmode="layer"
     id="layer1">
    <path
       id="path917"
       style="fill:none;stroke:#ff6600;stroke-width:1.05833;stroke-linecap:round;stroke-linejoin:round;stroke-miterlimit:4;stroke-dasharray:none;stroke-opacity:1"
       d="m -277.52902,104.41592 3.30729,6.14211 15.02456,1.79539 c -2.15591,2.79002 -2.86259,5.6525 0,8.69345 l -14.17411,1.22843 0.66146,1.22842 h 33.26191 l -2.36236,-4.15774 h -1.70089 c -9.06938,-9.13396 0.0131,-3.35906 -9.92187,-12.94568 h -4.9137 l -1.60639,-1.51191 z m -65.77867,3.82824 c -4.21743,6.61651 -3.53038,12.25212 1.06907,17.10525 l 38.4868,-1.87089 0.66818,-1.06908 -10.95804,-0.80181 c -3.01256,-3.57019 -2.52197,-6.82192 0,-9.88897 l 10.55714,-1.20271 v -1.20271 z m 95.16632,-10.915293 -25.32439,0.188989 c -29.01266,-6.678621 -59.56603,2.357975 -90.33632,13.607144 -5.19381,2.78834 -10.13473,5.63415 0,11.90625 32.18099,10.15921 63.22094,29.44673 99.78571,4.53571 h 27.21429 c 13.45948,1.80485 20.50786,7.02895 28.91518,11.52828 -1.97814,-17.48259 -0.82937,-42.324027 -40.25447,-41.766373 z"
       inkscape:export-xdpi="300"
       inkscape:export-ydpi="300" />
    <path
       style="fill:none;stroke:#ff6600;stroke-width:1.05833;stroke-linecap:round;stroke-linejoin:round;stroke-miterlimit:4;stroke-dasharray:none;stroke-opacity:1"
       d="M 78.10398,1.7129736 H 35.770647 c -10.130195,2.560391 -0.650802,4.346719 1.41741,6.4255936 h 15.591517 l 0.944941,1.039437 h 1.511906 l 6.331101,4.0632428 c -0.748927,0.374768 -0.908867,0.970407 -0.952723,1.609577 1.475627,1.475221 3.365038,1.157375 5.078122,1.603616 h 34.277318 l 2.204971,0.902036 1.23612,-0.367496 c 6.92029,3.024396 13.93952,4.069938 21.21452,0 l 1.80407,0.46772 3.90882,-1.770661 10.12283,-0.801809 h 6.11379 l -1.5368,-2.906554 c -7.77368,-1.94862 -12.15605,-5.1689798 -25.72469,-4.9444878 l -1.73725,-1.8374776 c -2.07185,-1.260953 -4.48378,-1.751034 -7.88445,0 -2.31634,0.590215 -5.19983,0.51876 -6.94901,1.7706626 l -11.024868,1.570207 -2.672696,1.6370268 h -2.939965 v 0.601356 L 72.575112,12.712665 69.0672,8.4697622 h 9.120571 c 3.063258,0.216583 8.471653,-4.8249296 -0.08379,-6.7567886 z"
       id="path863"
       sodipodi:nodetypes="cccccccccccccccccccccccccccccc"
       inkscape:export-xdpi="96"
       inkscape:export-ydpi="96" />
    <path
       style="fill:none;stroke:#ff6600;stroke-width:1.05833;stroke-linecap:butt;stroke-linejoin:miter;stroke-miterlimit:4;stroke-dasharray:none;stroke-opacity:1"
       d="m 33.800655,23.664602 c 4.042076,0.316472 9.518952,0.01249 11.481028,1.228421 -1.449463,2.355698 -3.483086,4.0823 -6.567337,4.677457 h -9.921875 c -2.233412,0.350927 -3.36346,1.085633 -4.157736,1.937129 H 14.476624 v -1.27567 H 8.8542284 c -0.10493,-0.790404 -0.845749,-1.719045 0.377976,-2.220611 2.1625726,-0.312971 2.4087156,-0.455593 7.0870516,-0.992188 l -0.992187,-0.330729 -2.740327,-0.04725 -1.464656,-0.377976 H 9.3739444 c -1.136888,0.04133 -2.170364,0.289479 -3.1183029,0.708705 l -1.559152,-2.882069 6.8508185,0.04725 c -0.218949,-0.684651 0.266322,-1.000426 1.370163,-0.992187 l 18.190104,0.330729 c 0.462294,-0.894881 1.627047,-0.244354 2.69308,0.188989 z"
       id="path916"
       sodipodi:nodetypes="cccccccccccccccccccc"
       inkscape:export-xdpi="96"
       inkscape:export-ydpi="96" />
    <path
       style="fill:none;stroke:#ff6600;stroke-width:1.05833;stroke-linecap:round;stroke-linejoin:round;stroke-miterlimit:4;stroke-dasharray:none;stroke-opacity:1"
       d="m 112.6369,29.009672 -1.22842,0.566965 h -0.94494 c -0.35784,-0.4496 -1.21744,-0.684162 -2.45684,-0.755952 l -34.20685,0.188987 c -10.995489,0.40123 -10.421807,1.609612 -10.961309,2.740329 v 2.740326 c 1.165441,1.984366 5.843945,1.626689 9.449406,1.984375 l 0.472469,0.566965 h 5.953125 l 1.984375,1.511904 0.614211,3.118305 -4.299479,0.708705 -2.220611,2.551335 H 72.38244 l 1.322917,1.84264 h 15.874999 c 1.588521,0.11535 9.067715,-0.93201 15.308034,7.1343 8.14992,-0.32919 19.86351,0.0543 21.11943,-1.65365 l 1.08668,0.23624 4.44122,-9.21317 -0.8977,-0.992189 0.23624,-0.614211 -0.61421,-0.425225 5.00818,-6.000372 c 14.19291,5.411069 24.63059,-1.337672 36.42745,-3.685267 h 14.55209 l -2.12612,-2.456845 c -9.34116,-1.242173 -18.10629,-3.060375 -28.5372,-3.212798 l -0.49609,-0.779576 h -2.22061 l -0.4016,-0.73233 h -1.74814 c -1.81387,-2.019528 -3.58794,-1.691141 -5.33892,0 H 138.859 l -0.37797,0.73233 h -8.29185 l -0.89207,1.545106 c -6.19048,0.511226 -11.29922,1.486054 -16.66021,2.352773 z"
       id="path948"
       sodipodi:nodetypes="ccccccccccccccccccccccccccccccccccccccc"
       inkscape:export-xdpi="96"
       inkscape:export-ydpi="96" />
    <path
       style="fill:none;stroke:#ff6600;stroke-width:1.05833;stroke-linecap:round;stroke-linejoin:round;stroke-miterlimit:4;stroke-dasharray:none;stroke-opacity:1"
       d="m 90.856026,38.506324 0.283483,1.606399 18.568081,-1.41741 c 1.62844,-0.933999 3.70541,-1.91521 0.7087,-2.362351 -0.44202,0.392679 -1.02324,0.646151 -1.84263,0.661459 l -9.874627,-0.236236 -0.566965,0.803198 -1.464659,-0.09449 -0.425223,0.897694 z"
       id="path950"
       sodipodi:nodetypes="cccccccccc"
       inkscape:export-xdpi="96"
       inkscape:export-ydpi="96" />
    <path
       style="fill:none;stroke:#ff6600;stroke-width:1.058;stroke-linecap:round;stroke-linejoin:round;stroke-miterlimit:4;stroke-dasharray:none;stroke-opacity:1"
       d="m 33.828868,94.494047 c 15.962199,-3.939706 31.101494,-8.114618 57.830357,-8.976934 l -6.992559,-3.212798 -2.267858,0.09449 -1.795386,-0.661458 -4.819197,-0.188987 v -2.929316 h 4.597085 c 5.606159,-2.038033 9.248645,-0.989123 12.929163,0 h 7.450137 l 1.3031,0.907098 v 1.169469 l -0.79142,0.739161 5.42376,2.10866 16.09944,0.02131 c 1.68248,-1.310805 2.55218,-0.338932 3.64553,0.0048 6.19041,0.776264 12.81385,0.38139 18.35747,2.906882 4.88934,0.572449 10.99446,0.63159 13.60933,2.164321 l 0.0113,2.071306 c -2.94456,1.014002 -6.38137,1.629828 -10.21272,1.926516 l -18.64251,-0.03214 v 0.667983 h -5.70952 c -3.5391,1.292518 -7.16696,2.140148 -11.39092,0 -5.26058,1.680094 -10.361,2.034911 -15.872653,5.792462 -0.233781,1.143998 -0.164774,2.500048 -1.487726,2.881288 h -2.104715 l -0.864248,0.81799 h -3.608269 l -0.85558,-0.49397 H 18.555902 c -2.678294,-0.73302 -4.010579,-2.09812 -4.821844,-3.707879 v -0.968838 c 1.77727,-1.368979 3.902374,-2.550029 7.00502,-3.202932 z"
       id="path1084"
       sodipodi:nodetypes="ccccccccccccccccccccccccccccccccccc"
       inkscape:export-xdpi="96"
       inkscape:export-ydpi="96" />
    <path
       style="fill:none;stroke:#ff6600;stroke-width:1.05833;stroke-linecap:round;stroke-linejoin:round;stroke-miterlimit:4;stroke-dasharray:none;stroke-opacity:1"
       d="m 1.4102912,51.026784 c 11.4114118,1.814098 9.2987948,3.793123 0.0945,5.858632 h -9.4494051 l 0.8504464,3.96875 c 2.4465493,1.228422 2.7042775,2.456845 3.4962798,3.685267 L 10.103749,64.255951 c 2.729272,-1.474147 7.621765,-0.064 11.71726,0.283482 l 19.938246,3.307292 v 1.41741 C 26.795746,71.503421 10.882368,75.167512 1.2213082,69.453124 H -12.952803 l -0.283483,2.173364 H 0.46535122 c 11.01418978,0.862553 11.77944078,5.268969 0,5.575147 H -47.537624 c -5.449162,0.0945 -4.598705,-5.827132 0,-5.858629 h 7.181546 l 4.252233,-2.267858 c -3.925406,-0.143734 -5.541689,-1.903855 -6.99256,-3.779763 h 7.276042 c 0.181725,-1.681507 0.895656,-3.134925 2.834822,-4.063243 V 57.074405 H -48.86054 c -4.109913,0 -2.870999,-6.803572 0,-6.803572 z"
       id="path857"
       sodipodi:nodetypes="ccccccccccccccccccccccccc"
       inkscape:export-xdpi="96"
       inkscape:export-ydpi="96" />
    <path
       style="fill:none;stroke:#ff6600;stroke-width:1.058;stroke-linecap:round;stroke-linejoin:round;stroke-miterlimit:4;stroke-dasharray:none;stroke-opacity:1"
       d="m -81.365582,90.092866 c 7.048647,2.434918 4.353048,4.49506 0,6.491454 l -39.448038,1.165134 -0.49934,5.492756 1.99737,7.82303 c 10.34334,-0.83342 18.52682,-2.28395 31.625006,-2.33026 l 1.33158,-2.33026 h -1.498027 v -2.99606 l 10.153293,-1.99737 1.498027,-2.330265 h 10.985526 l 0.83224,-1.331571 h 21.63816 l 1.16514,1.331571 h 6.49145 l 1.49803,1.664475 18.6421,2.66316 -0.36634,1.36722 c -16.38419,2.94439 -32.2454,7.66694 -50.73301,3.45976 l -1.99737,3.1625 2.99605,1.33157 -0.66579,1.49803 1.49803,0.83224 -5.825662,11.81776 -1.99737,-0.16645 -0.332895,0.83224 c -7.194743,1.63898 -16.388975,2.18732 -28.462508,1.16514 -4.69284,-4.60888 -9.50527,-9.1199 -18.975,-9.8204 l -1.33158,7.65658 v 5.32631 l 39.115139,1.49804 c 9.114732,2.678 4.793004,4.51623 0,6.325 l -67.244759,1.16513 c -5.56837,0.0899 -3.91186,-8.44731 0,-8.65527 l 13.48224,-0.16645 -2.49671,-4.82697 9.32106,-8.65526 h -12.65001 c 2.13258,-3.1759 5.20695,-5.94816 13.48224,-6.49146 l -10.15329,-8.98816 3.1625,-5.159865 h -15.31316 c -4.37504,-0.05549 -3.82938,-9.099123 0,-9.154605 z"
       id="path873"
       sodipodi:nodetypes="ccccccccccccccccccccccccccccccccccccccccccccc"
       inkscape:export-xdpi="96"
       inkscape:export-ydpi="96" />
    <path
       style="fill:none;stroke:#ff6600;stroke-width:1.058;stroke-linecap:round;stroke-linejoin:round;stroke-miterlimit:4;stroke-dasharray:none;stroke-opacity:1"
       d="m 49.712131,141.92012 16.169806,-0.66818 c 5.779628,-2.32224 12.546826,-0.20042 18.976136,0.40091 l 31.805077,4.81085 0.26727,2.00452 h -12.02713 c -12.4915,1.82402 -23.629966,5.40698 -39.422258,2.93997 l -3.875407,0.66817 v 2.40542 c 8.641819,0.62767 15.456574,1.42144 20.17885,2.40543 l -1.870888,4.40995 c -28.64055,1.11042 -47.0386,0.40363 -53.587539,-2.40543 5.850635,-1.48121 7.880003,-3.194 24.722432,-4.00904 l 0.133633,-3.0736 H 40.224064 c -1.328386,-2.17566 -4.06248,-3.34724 -7.884451,-3.74177 H 10.824416 c 0.416666,-2.20189 1.881208,-3.7052 3.340869,-5.21176 l -2.939965,-2.40543 h -23.920622 v -5.21175 H 2.5390605 l 1.737252,-0.93545 c 14.5557945,0.53454 19.3324955,1.06908 28.9987425,1.60362 l 15.768902,0.53454 c 3.369547,1.38089 2.769111,2.76179 -0.267269,4.14268 z"
       id="path889"
       sodipodi:nodetypes="ccccccccccccccccccccccccccc"
       inkscape:export-xdpi="96"
       inkscape:export-ydpi="96" />
    <path
       style="fill:none;stroke:#ff6600;stroke-width:1.05833;stroke-linecap:butt;stroke-linejoin:miter;stroke-miterlimit:4;stroke-dasharray:none;stroke-opacity:1"
       d="m 296.69614,-17.773423 v 2.27179 c -18.281,2.368042 -35.19024,4.177224 -43.96584,2.672696 l -17.63979,9.6217026 1.33635,0.8018087 -0.4009,1.73725188 h 3.60813 c 5.30518,2.24432842 7.44669,4.66441612 0,7.61718142 l -6.5481,0.1336347 3.0736,2.9399647 -8.41899,0.133635 -7.08264,-3.2072344 h -45.30219 c -4.04253,-0.012988 -3.12641,-8.987716 0,-9.0871638 l 35.81412,-0.1336347 2.00452,-1.2027129 3.0736,0.1336347 16.97162,-12.8289369 -0.35199,-1.313647 c 3.97145,-1.209999 9.66358,-1.928374 16.12089,-2.428127 l 5.34539,-1.870886 h 17.23888 l 2.93997,1.469982 c 20.84253,1.723402 15.8798,1.763852 22.18337,2.539061 z"
       id="path905"
       sodipodi:nodetypes="cccccccccccccccccccccccc"
       inkscape:export-xdpi="96"
       inkscape:export-ydpi="96" />
    <path
       style="fill:none;stroke:#ff6600;stroke-width:1.05833;stroke-linecap:butt;stroke-linejoin:miter;stroke-miterlimit:4;stroke-dasharray:none;stroke-opacity:1"
       d="m 298.94096,59.601105 v 2.138156 c -22.42603,4.456015 -33.83911,4.928627 -39.55588,3.340867 -3.10033,1.38979 -6.437,0.888863 -9.2208,4.810852 2.36811,1.795917 -0.65916,2.12037 -1.87089,2.939966 l -7.08264,0.801809 c 1.36052,1.344405 0.73687,2.027418 0,2.672694 l -11.49259,1.069078 h -54.92389 v -4.81085 h 7.88445 l 2.00454,-1.737254 h 39.15497 l 5.21175,-1.336347 c 4.3654,-2.049066 6.94901,-4.98903 7.75082,-8.819893 -2.06335,-8.883017 -9.27898,-8.398235 -14.96709,-10.690781 h -39.42225 l -0.80181,-1.336349 h -7.21628 v -5.479024 l 60.93745,0.534538 5.87993,1.069078 c 0.43884,1.024534 1.56135,2.049067 0,3.073601 l 7.61718,1.202711 c 1.25455,0.805535 3.32852,1.529127 1.20271,2.672697 l 8.8199,5.078121 2.67269,-1.469983 c 3.60675,-1.120575 7.53548,-0.631257 11.49259,0 l 2.40543,1.069078 c 22.89723,2.742114 17.96257,2.391797 23.51971,3.207235 z"
       id="path921"
       sodipodi:nodetypes="cccccccccccccccccccccccccccccc"
       inkscape:export-xdpi="96"
       inkscape:export-ydpi="96" />
    <path
       style="fill:none;stroke:#ff6600;stroke-width:1.05833;stroke-linecap:round;stroke-linejoin:round;stroke-miterlimit:4;stroke-dasharray:none;stroke-opacity:1"
       d="m 3.4592476,-69.888648 c 1.464677,-0.116376 2.6384656,-1.917456 4.6536964,1.15475 l 25.784242,2.09755 -1.940037,1.486603 -12.084349,0.265238 -10.8589537,1.10382 c -2.3511912,1.428883 -4.6916195,1.970681 -7.0021988,0.05233 l -0.8419126,1.499925 -9.1851211,-1.07244 -4.9715308,2.41082 c -1.126149,1.477913 -2.411884,2.90047 -2.801932,4.633713 l -25.1612,3.126861 -11.804821,-0.143228 c -1.111789,-1.308381 -4.093426,-1.842111 -6.972222,-2.418448 l -61.081428,-0.878384 -2.86591,-1.40763 -27.99381,-1.026076 6.33252,-1.43331 17.57664,-0.335886 3.56057,0.729632 64.817564,-1.547427 10.848959,-0.280226 c 16.875375,-3.851601 33.731968,-7.751856 51.9912346,-8.018185 z"
       id="path862"
       sodipodi:nodetypes="ccccccccccccccccccccccc"
       inkscape:export-xdpi="96"
       inkscape:export-ydpi="96" />
    <path
       style="fill:none;stroke:#ff6600;stroke-width:1.05833;stroke-linecap:butt;stroke-linejoin:miter;stroke-miterlimit:4;stroke-dasharray:none;stroke-opacity:1"
       d="m -143.14806,-94.369759 17.24028,-3.15643 2.23208,0.961973 c 22.21463,-2.189676 44.407593,-2.591613 66.595258,-2.557608 5.819101,1.041261 10.524342,2.896992 14.331688,5.409274 l -7.86327,0.839484 2.033777,1.894459 c 10.943228,-0.904237 21.661664,0.01301 32.331122,1.327162 4.299411,-1.517476 8.3091285,-0.687552 12.3410126,-0.03724 l 31.1799304,3.743911 -12.782959,5.64123 c -22.5296151,2.116684 -44.966646,3.229453 -66.928338,-0.81204 l -9.689677,-2.735258 -6.923979,0.476925 c -0.02798,-2.272721 -1.955101,-4.027671 -3.668699,-5.840834 l 4.680571,-0.504147 0.0204,-1.682555 -5.029525,-1.556849 -51.602912,-0.252142 -2.25702,1.094488 -13.2667,-0.7219 z"
       id="path864"
       sodipodi:nodetypes="cccccccccccccccccccccc"
       inkscape:export-xdpi="96"
       inkscape:export-ydpi="96" />
    <path
       style="fill:none;stroke:#ff6600;stroke-width:1.05833;stroke-linecap:butt;stroke-linejoin:miter;stroke-miterlimit:4;stroke-dasharray:none;stroke-opacity:1"
       d="m -69.744171,-133.68893 -3.267295,4.37735 -8.548444,0.15685 -0.962935,2.26027 h 15.238106 c 1.64166,0.77069 3.373758,1.50872 2.229471,3.28576 l -3.739877,-0.17902 -0.430059,2.40039 -8.149497,-0.23253 -5.907059,2.20029 c -20.44261,0.13244 -42.65083,0.94639 -64.83889,1.75256 l -0.58152,3.86864 c 28.56091,0.231 54.721523,1.62596 81.221258,2.85648 14.796178,0.84939 24.983429,0.2192 35.286706,-0.37374 10.652889,-0.60243 9.080689,-3.32914 9.157832,-5.76925 -5.435238,-1.56128 -11.31846,-2.68532 -18.546304,-2.49698 l 0.288327,-1.73388 11.809253,-3.9997 23.6467477,0.68784 c 7.8157556,3.69753 13.8910889,2.57692 18.6046693,-2.31352 l 19.949023,-2.96543 0.434923,-2.80126 c -3.379488,-0.50895 -6.742688,-2.3604 -10.105236,-4.26559 l -1.47798,0.65029 c -13.9284017,-2.29489 -27.9228469,-4.30873 -42.590684,-3.45693 l -2.521039,-1.50068 -12.166355,0.38697 -2.798016,-0.70217 -12.435224,0.51734 -3.112283,3.16971 -6.681248,-0.0811 -5.128005,4.08076 z"
       id="path882"
       sodipodi:nodetypes="ccccccccccccccccccccccccccccccccc"
       inkscape:export-xdpi="96"
       inkscape:export-ydpi="96" />
    <path
       style="fill:none;stroke:#ff6600;stroke-width:1.05833;stroke-linecap:butt;stroke-linejoin:miter;stroke-miterlimit:4;stroke-dasharray:none;stroke-opacity:1"
       d="m 231.6994,118.87351 h -32.69494 l -0.94494,-0.66146 c -5.29219,1.16538 -27.24852,0.83286 -15.875,3.49628 l 0.66146,1.13393 15.11905,0.0945 1.03943,-0.56696 h 8.97693 l 1.32292,1.22842 20.97768,9.5439 -14.64658,1.98437 c -1.33037,1.02168 -2.63025,2.06078 -2.74033,3.77977 l 0.47248,0.75595 c 13.17176,1.2786 14.95324,3.01281 14.93006,4.8192 10.4517,1.29087 21.11015,3.1268 29.67112,-0.56697 l 2.64584,-1.13393 v -7.55952 l -2.74033,-0.94494 v -3.87426 l 8.12648,-4.53571 3.87427,-0.28348 c 18.30559,7.63287 1.82723,3.54835 24.37947,-0.94494 h 15.02455 c 2.03025,-1.42659 1.12079,-2.26523 0.75594,-3.2128 h -9.1659 c -4.85574,-0.12012 -8.68918,-1.43291 -12.85121,-2.36235 h -2.07886 l -2.55135,-1.79539 c -1.77282,-0.67981 -3.33806,-2.39748 -5.57514,-0.75595 h -1.98438 l 0.20164,0.75256 c -1.28443,0.30313 -2.6678,-0.28424 -3.84,1.02892 -3.15854,2.3601 -8.61972,2.68846 -13.84304,3.2267 v -0.75595 h -10.96131 l 0.47247,2.83482 0.94494,0.28348 -8.78794,8.12649 -4.34673,0.56697 -12.94568,-8.59896 h 3.96875 l 1.80759,-1.04362 h 3.57857 l 0.5218,0.52181 h 8.36064 c 3.66281,-1.35597 5.57501,-2.85387 0,-4.95885 h -8.22099 z"
       id="path867"
       sodipodi:nodetypes="cccccccccccccccccccccccccccccccccccccccccccccccc"
       inkscape:export-xdpi="300"
       inkscape:export-ydpi="300" />
    <g
       id="g872"
       style="stroke-width:0.659878;stroke-miterlimit:4;stroke-dasharray:none"
       sodipodi:insensitive="true"
       transform="matrix(1.5888408,0,0,1.6189539,-82.603161,-111.81615)"
       inkscape:export-xdpi="300"
       inkscape:export-ydpi="300">
      <path
         style="fill:none;stroke:#ff6600;stroke-width:0.659878;stroke-linecap:round;stroke-linejoin:round;stroke-miterlimit:4;stroke-dasharray:none;stroke-opacity:1"
         d="m 165.64029,183.28008 v 1.13589 c 5.03347,1.28472 10.34263,1.65047 15.63526,2.07134 -1.94014,2.04551 -2.56853,4.67401 -5.94674,6.08038 H 166.843 l -1.98182,-1.1442 h -6.83807 l -5.16539,1.38406 h -11.93986 c -0.36577,0.15446 -0.85084,0.1747 -0.53454,1.09649 l 4.33561,2.50317 H 189.16 c 2.43771,-0.0794 2.53917,-3.34891 0,-3.57225 h -4.27631 c -0.79589,-0.22227 -0.66881,-0.72143 -0.60135,-1.20271 l 4.37654,-4.37654 h 3.70836 c 1.68511,-0.37745 2.98647,-0.88282 3.34087,-1.70384 5.85422,0.0935 9.75642,-0.49629 13.89801,-1.00226 v -1.1359 c -4.01333,-1.32244 -11.08491,-1.39379 -16.83798,-2.00452 l -0.60135,-0.73499 c -9.77093,-0.13443 -18.97048,0.34821 -26.5265,2.60588 z"
         id="path866"
         sodipodi:nodetypes="ccccccccccccccccccccccc" />
      <path
         style="fill:none;stroke:#ff6600;stroke-width:0.659878;stroke-linecap:round;stroke-linejoin:round;stroke-miterlimit:4;stroke-dasharray:none;stroke-opacity:1"
         d="m 183.01281,187.2223 h 2.17156 l -3.10701,3.90882 h -2.23838 z"
         id="path868" />
    </g>
    <path
       style="fill:none;stroke:#ff6600;stroke-width:1.05833;stroke-linecap:round;stroke-linejoin:round;stroke-miterlimit:4;stroke-dasharray:none;stroke-opacity:1"
       d="m 176.72027,228.27704 v 0.63477 l 0.57062,0.32946 v 0.90667 l -0.55258,0.55256 v 0.51651 l 10.47228,0.90202 c -1.92386,2.5917 -4.37153,5.06987 -9.12057,7.04924 h -40.79201 c -3.06227,0.19864 -2.67061,2.53513 -2.53906,4.71062 0.57631,1.43014 1.15535,2.85559 2.33861,3.24064 h 71.55875 c 7.9302,-0.76149 -4.25344,-7.7644 -6.57369,-8.03809 h -2.33849 l 0.43025,-1.26357 h 14.36556 c 0.97108,0.19662 0.99096,-0.31732 0.90803,-0.90805 v -1.84605 c 1.51207,-2.74511 4.42007,-1.78937 6.92881,-1.89215 l 0.83636,0.36489 h 15.13469 l 1.13401,-0.45162 18.14547,-0.41986 0.89998,-1.07083 c 27.38315,-2.62008 2.85997,-3.65736 -3.85207,-5.23777 h -12.46167 c 0.63886,-0.74421 0.46874,-1.41651 -0.93904,-1.97879 h -1.43657 c -1.59586,-2.0349 -19.1853,-0.66696 -19.71109,0.0406 -6.60007,-0.3561 -21.20263,1.61287 -31.96744,2.46681 l -0.5178,0.51782 z"
       id="path972"
       sodipodi:nodetypes="cccccccccccccccccccccccccccccccc"
       inkscape:export-xdpi="300"
       inkscape:export-ydpi="300" />
    <rect
       style="fill:none;stroke:#ff6600;stroke-width:1.05833;stroke-linecap:round;stroke-linejoin:round;stroke-miterlimit:4;stroke-dasharray:none"
       id="rect848"
       width="67.619186"
       height="67.619186"
       x="-22.717911"
       y="193.7704"
       ry="0.9608053"
       inkscape:export-xdpi="300"
       inkscape:export-ydpi="300" />
    <circle
       style="fill:none;stroke:#ff6600;stroke-width:1.05833;stroke-linecap:round;stroke-linejoin:round;stroke-miterlimit:4;stroke-dasharray:none"
       id="path850"
       cx="-69.222809"
       cy="225.57547"
       r="25.390606"
       inkscape:export-xdpi="300"
       inkscape:export-ydpi="300" />
    <path
       style="fill:none;stroke:#ff6600;stroke-width:1.05833;stroke-linecap:round;stroke-linejoin:round;stroke-miterlimit:4;stroke-dasharray:none;stroke-opacity:1"
       d="m -227.31273,167.71163 -19.10977,7.21627 h -52.38482 c -2.3954,-0.0966 -2.06933,0.69954 -1.67044,1.67044 l 4.71133,8.16026 h -4.64453 l 3.26636,5.65748 c 36.72733,2.16892 74.35415,9.23509 108.98686,0 l 3.01037,-5.21413 -28.00008,-4.79502 12.42804,-12.16076 h 12.02713 c 7.29954,0.0536 11.23693,-9.90519 0,-11.49259 l -72.69731,1.60361 2.80632,8.55263 z"
       id="path897"
       sodipodi:nodetypes="cccccccccccccccc"
       inkscape:export-xdpi="96"
       inkscape:export-ydpi="96" />
    <path
       style="fill:none;stroke:#ff6600;stroke-width:1.05833;stroke-linecap:round;stroke-linejoin:round;stroke-miterlimit:4;stroke-dasharray:none;stroke-opacity:1"
       d="m -319.38989,39.49851 -22.30059,1.322917 c 2.82947,3.458913 6.90628,6.450079 7.9375,10.583336 l -24.37945,-0.188989 c -3.18744,3.772943 -2.85641,7.69249 0,11.71726 h 52.34969 c 1.10349,-3.517208 2.54931,-7.011593 0,-10.77232 h -3.02382 l -0.60494,-2.257681 11.18828,-2.089044 13.79614,0.188986 5.48066,-3.212798 c 13.22749,-2.932252 28.72619,-1.88988 43.08928,-2.83482 l 0.75595,1.511903 4.7247,0.377979 c 6.78223,7.307525 26.2965,10.277601 20.03274,-4.157739 l 2.26786,-1.700893 v -3.401785 h -3.77976 c -8.43191,-4.506771 -10.92684,-3.26208 -11.33929,0 v 1.322917 l -11.43014,3.062697 c -6.47847,1.57835 -27.373,-0.550284 -41.67551,-0.983829 l -4.53572,-2.456847 -13.22917,0.377979 -2.83483,-3.023812 -4.3467,-0.755952 v -2.834819 h -19.65476 v 5.102677 c 1.61276,1.063706 3.73128,1.910654 3.68525,3.685267 z"
       id="path934"
       sodipodi:nodetypes="cccccccccccccccccccccccccccccccc"
       inkscape:export-xdpi="300"
       inkscape:export-ydpi="300" />
    <path
       style="fill:none;stroke:#ff6600;stroke-width:1.05833;stroke-linecap:round;stroke-linejoin:round;stroke-miterlimit:4;stroke-dasharray:none;stroke-opacity:1"
       d="m -289.85736,-25.796875 -5.85862,-0.09449 c -1.56841,-1.822376 -2.70313,-4.132653 -5.19718,-4.91369 h -2.45685 c -1.27245,-1.744499 -3.01462,-2.976573 -5.66965,-3.212798 l -0.25521,-0.952511 h -14.76934 l -0.25077,0.935951 -5.98582,0.772512 v 3.307291 l -9.87777,2.646744 v 4.723793 l 3.40989,0.913684 c 5.411,4.972998 19.69449,18.7498972 23.28781,17.701643 l 1.40983,5.2615915 5.39374,5.2272477 c 3.11966,2.9005458 4.02104,0.8447921 5.38615,0.7559524 l 6.5201,-2.0788691 0.0945,-1.0394344 h 8.88245 l 0.53407,1.993188 h 4.19063 l -0.85773,-3.2011217 h -12.37144 l -6.99257,-2.38284011 -1.82578,-6.81395879 1.24497,-2.1563575 -7.37852,-12.779949 h 23.36187 c 7.22113,1.432622 14.39074,2.794091 16.44197,-2.912681 -7.61804,-5.372303 -14.02435,-3.59537 -20.41073,-1.700897 z"
       id="path951"
       sodipodi:nodetypes="ccccccccccccccccccccccccccccccc"
       inkscape:export-xdpi="300"
       inkscape:export-ydpi="300" />
    <path
       id="path971"
       style="fill:none;stroke:#ff6600;stroke-width:1.05833;stroke-linecap:round;stroke-linejoin:round;stroke-miterlimit:4;stroke-dasharray:none;stroke-opacity:1"
       d="m -330.02,-119.20423 3.96875,2.88206 20.78871,-0.28348 1.98437,2.55134 h 2.26785 l 1.79538,-2.17337 15.40254,0.47247 0.47133,-0.57385 h -0.83521 l 1.23613,-3.0736 h 5.34538 l 0.12141,0.45309 h 2.11696 l 0.63429,2.36712 h -2.87266 l 0.81158,0.81157 h 1.49363 l 1.14842,1.98915 9.50894,-0.70985 0.60134,-1.63703 h 2.67272 l 0.43431,-0.60136 3.80857,0.16705 1.00227,1.90429 12.82893,0.80181 m 0,0 v 2.80633 l -10.55714,0.93545 -1.28439,2.22463 -9.54003,-0.88829 0.39436,-1.47173 -10.01606,-0.26552 -16.89561,2.98173 v 1.60639 l -8.59896,-0.56696 h -3.49628 l -0.37798,-1.22842 h -6.89806 v 1.13393 h -4.06326 l -1.03941,-1.22843 h -15.68604 c 0.13095,1.38492 1.35611,2.551 4.15774,3.40179 l 0.69729,1.20774 5.25584,0.0207 c 7.07366,2.88529 8.26842,5.455632 -4.5357,7.276038 h -24.096 l -1.08667,1.086681 h -8.92969 l -4.79799,-1.285618 -1.2629,0.338391 -7.30088,-1.956266 v -3.474856 l 6.75502,-1.81001 1.78612,1.03122 5.26988,-1.41206 h 10.51207 c 1.40449,-0.65092 3.72183,-0.99755 3.68649,-2.12841 l -1.10768,-1.91859 h -4.46871 v -5.38492 l 4.11049,-4.11049 1.39227,-2.41146 h -2.57345 c 1.54019,-1.44 0.88469,-2.88 1.15755,-4.32 l 5.26807,1.01457 h 12.94567 c 2.6127,1.14968 3.86466,2.29935 3.44902,3.44903 H -330.02"
       sodipodi:nodetypes="ccccccccccccccccccccccccccccccccccccccccccccccccccccccccccccccccccccc"
       inkscape:export-xdpi="300"
       inkscape:export-ydpi="300" />
    <path
       style="fill:none;stroke:#ff6600;stroke-width:1.05833;stroke-linecap:round;stroke-linejoin:round;stroke-miterlimit:4;stroke-dasharray:none;stroke-opacity:1"
       d="m -360.96725,-159.88393 c -10.4732,0.52467 -21.58113,-0.64326 -31.37202,1.70089 v 2.45685 l 27.78125,-0.56696 1.13392,6.99256 38.93154,1.13393 15.875,2.26785 9.07142,3.96875 h 18.89882 c 8.20915,-2.59399 11.62166,-5.02809 12.28423,-7.37053 8.19251,-0.57987 13.70573,-1.56569 13.60714,-3.40179 1.53857,-1.45466 2.0906,-3.27927 -0.37798,-6.23661 l 16.81994,-1.13392 v -2.26786 l -9.26041,-0.56697 c -1.13622,-1.72961 -10.89032,-5.63212 -13.41816,-0.75595 l -4.34671,0.37798 -1.51191,4.34672 h -2.64583 l -3.5908,-3.96875 -6.80354,0.18899 c -1.26368,-1.06981 -2.00749,-2.29557 -5.66965,-2.64583 l -2.45685,2.45684 -2.26787,0.18899 -1.32292,3.59078 h -2.45684 l -0.75594,-2.07887 -29.10417,0.56696 -1.51191,2.45684 -10.39434,0.37798 -2.26785,-1.88988 -3.4018,-0.18899 -1.51191,2.07887 -14.93004,0.75595 z"
       id="path988"
       sodipodi:nodetypes="ccccccccccccccccccccccccccccccccccc"
       inkscape:export-xdpi="300"
       inkscape:export-ydpi="300" />
    <path
       style="fill:none;stroke:#ff6600;stroke-width:1.05833;stroke-linecap:round;stroke-linejoin:round;stroke-miterlimit:4;stroke-dasharray:none;stroke-opacity:1"
       d="m -301.07936,-196.844 c -1.23294,-1.59793 -7.59758,-4.22839 -28.73147,-5.7463 l -3.20723,3.60814 h -1.06907 l 0.53453,-2.40543 -1.33635,-2.27179 h -2.2718 l -1.73725,-2.00452 -9.48806,-0.13363 -1.87087,1.60361 c -11.822,-0.0646 -25.47078,3.6461 -39.95682,9.08717 l 16.57072,-0.93545 c 8.24608,2.17706 15.97342,4.90991 26.59332,4.54359 v 1.46998 h -25.12335 c -10.64479,3.92377 11.06989,6.02732 27.6624,8.41899 h 12.16078 c 8.44323,0.56752 9.81267,-1.74688 8.68624,-5.07812 -0.41417,-3.22331 -4.8721,-3.32188 -9.08716,-3.60814 l -2.93995,-0.13364 3.47448,-1.73725 2.2718,-3.60814 c 10.568,-2.38259 21.02203,0.47406 28.86511,-1.06907 z"
       id="path1006"
       sodipodi:nodetypes="ccccccccccccccccccccccc"
       inkscape:export-xdpi="300"
       inkscape:export-ydpi="300" />
    <path
       style="fill:none;stroke:#ff6600;stroke-width:1.05833;stroke-linecap:round;stroke-linejoin:round;stroke-miterlimit:4;stroke-dasharray:none;stroke-opacity:1"
       d="m -364.74701,-272.89881 v 1.88989 c 27.27728,-1.02446 54.55456,4.59182 81.83184,6.99255 l 0.18899,2.26786 25.51338,0.18899 -3.59077,2.26786 c -14.01371,2.52233 -29.14942,4.08296 -46.68007,3.59077 l -0.37796,2.64583 c 8.4895,3.36246 17.36679,2.84693 26.08035,3.96875 -8.73938,1.87058 -14.29771,6.36086 -26.83631,5.10268 l 7.7485,4.91369 23.24556,1.32292 c 3.13678,1.36347 -6.30794,4.18265 -33.6399,9.07143 l -31.18302,0.18899 c -12.58139,-2.43103 -26.90891,-3.86427 -36.28573,-8.12649 l 0.189,-1.7009 c 15.18535,-1.50327 28.91468,-1.25932 42.9003,-1.32291 l -4.34673,-2.07887 c -8.76119,0.49787 -17.15289,1.47079 -27.59226,-0.18899 l -26.08035,-5.10268 c -0.074,-0.96719 -4.71703,-1.36325 -12.85121,-1.32291 -1.70311,-1.32341 0.64104,-1.74744 3.40181,-2.07888 l 9.4494,-0.18898 0.18897,-4.7247 -16.81993,-0.37798 c -33.46205,-2.26786 -27.4597,-4.53571 0.18899,-6.80357 l 8.50447,0.56696 -0.75596,-2.26785 -7.37053,-5.48065 -2.83482,-0.56698 c -0.23535,-2.70084 -5.02182,-1.33209 -6.61459,-3.59077 -4.89773,-0.244 -10.22778,-0.70417 -16.63096,-1.7009 l -0.56695,-3.21278 c 8.80428,-2.35699 16.43244,-2.83219 24.00149,-3.21281 l 2.26785,-4.15774 h 3.21281 l -0.18899,2.07888 10.01635,0.189 1.7009,-2.07889 c 30.77857,2.96416 35.52976,9.44941 35.52976,9.44941 l 2.83483,1.13392 v 2.26785 z"
       id="path1022"
       sodipodi:nodetypes="ccccccccccccccccccccccccccccccccccccccccccc"
       inkscape:export-xdpi="300"
       inkscape:export-ydpi="300" />
    <path
       style="fill:none;stroke:#ff6600;stroke-width:1.05833;stroke-linecap:round;stroke-linejoin:round;stroke-miterlimit:4;stroke-dasharray:none;stroke-opacity:1"
       d="m 268.20238,-140.71741 -0.80181,-2.13815 c -6.0385,-0.43013 -9.65478,-0.61803 -13.22984,-0.80181 -2.61183,-0.28249 -3.07586,-1.10192 -3.74178,-1.87089 -4.32506,0.62573 -9.03607,1.44444 -12.42803,1.60362 l -34.74504,-9.6217 -2.27179,-2.13816 h 5.34539 v -1.87089 l -8.81989,-0.93544 c -33.10684,4.96852 -41.85608,19.45081 -43.69856,22.85155 30.33695,6.37097 59.91551,3.26202 89.80255,4.00904 0.70686,-0.89116 -5.35566,-2.07663 -10.15624,-3.20724 l 11.75986,-0.26726 c 11.76702,0.30977 24.80256,0.2571 41.82768,-0.93545 -0.93686,-1.95492 -11.78648,-3.17557 -18.8425,-4.67722 z"
       id="path1038"
       sodipodi:nodetypes="cccccccccccccccc"
       inkscape:export-xdpi="300"
       inkscape:export-ydpi="300" />
    <path
       style="fill:none;stroke:#ff6600;stroke-width:1.05833;stroke-linecap:round;stroke-linejoin:round;stroke-miterlimit:4;stroke-dasharray:none;stroke-opacity:1"
       d="m -46.556417,-211.67746 -8.68626,-1.20272 c -1.343731,-2.61338 -4.242418,-2.11685 -6.548101,-2.80633 l -6.815373,0.13364 c -5.570502,2.55185 -10.753298,5.25282 -14.03165,8.68626 l -3.741775,-0.13364 -12.561668,-4.81085 -3.474506,0.13364 -3.4745,6.5481 c -1.60362,1.15817 -1.60361,2.5836 0,4.27631 l 3.20723,6.01357 4.142681,0.13363 6.373222,-3.67958 c 3.698644,3.77589 6.732766,0.90656 9.93022,-0.32946 l 10.95805,4.94448 14.699823,-0.26727 c 2.155606,-0.43229 5.349443,-0.15695 6.68174,-0.13363 v -1.33635 c -1.670121,-0.22471 -3.452371,0.31183 -5.746295,0 l -5.211757,-2.40542 -2.539061,0.93544 v -2.27179 l 21.648833,0.53454 c 4.054021,2.55862 8.741439,1.15851 13.49711,-0.66818 15.491478,-3.87894 10.668608,-6.21679 0.53454,-8.15172 -1.805258,-1.73055 -1.150566,-4.16394 -6.280835,-4.94448 z"
       id="path1054"
       sodipodi:nodetypes="ccccccccccccccccccccccccccc"
       inkscape:export-xdpi="300"
       inkscape:export-ydpi="300" />
  </g>
</svg>
