<?xml version="1.0" standalone="no"?>
<!DOCTYPE svg PUBLIC "-//W3C//DTD SVG 20010904//EN"
 "http://www.w3.org/TR/2001/REC-SVG-20010904/DTD/svg10.dtd">
<svg version="1.0" xmlns="http://www.w3.org/2000/svg"
 width="128.000000pt" height="128.000000pt" viewBox="0 0 128.000000 128.000000"
 preserveAspectRatio="xMidYMid meet">
<metadata>
Created by potrace 1.11, written by Peter Selinger 2001-2013
</metadata>
<g transform="translate(0.000000,128.000000) scale(0.100000,-0.100000)"
fill="#000000" stroke="none">
<path d="M500 1264 c-36 -7 -103 -32 -150 -55 -217 -108 -359 -348 -348 -591
2 -42 6 -79 10 -83 3 -3 42 12 87 34 44 23 88 41 97 41 9 0 98 43 199 95 100
52 194 95 208 95 16 0 30 -8 37 -20 15 -29 -5 -55 -67 -88 -29 -15 -53 -30
-53 -33 0 -4 7 -12 16 -20 13 -11 31 -5 114 36 94 46 99 50 93 76 -11 54 53
119 162 164 59 24 194 55 243 55 l43 0 -33 46 c-83 117 -241 219 -383 249 -86
18 -189 18 -275 -1z"/>
<path d="M1225 804 c-38 -31 -145 -74 -241 -98 -92 -24 -124 -39 -124 -57 0
-5 15 -9 34 -9 41 0 61 -22 58 -62 -3 -42 -34 -64 -177 -124 -99 -42 -134 -52
-197 -56 l-76 -5 2 30 c1 25 8 33 36 43 38 12 40 27 11 57 -18 18 -22 17 -129
-37 -62 -31 -118 -56 -125 -56 -8 0 -22 9 -32 20 -17 19 -17 20 9 31 14 7 26
16 26 20 0 11 74 49 95 49 20 0 95 38 95 48 0 5 -6 16 -13 26 -11 16 -26 11
-194 -64 -99 -44 -189 -80 -199 -80 -11 0 -28 7 -38 15 -32 24 -36 18 -19 -37
47 -162 174 -313 323 -387 478 -235 1010 162 919 686 -6 35 -14 63 -18 63 -3
0 -15 -8 -26 -16z"/>
<path d="M712 622 c-30 -15 -53 -55 -39 -69 12 -11 52 24 64 56 6 17 11 31 10
30 -1 0 -17 -8 -35 -17z"/>
<path d="M603 572 c-10 -6 -10 -12 2 -28 14 -18 14 -18 15 9 0 30 0 30 -17 19z"/>
</g>
</svg>
