<?xml version="1.0" standalone="no"?>
<!DOCTYPE svg PUBLIC "-//W3C//DTD SVG 20010904//EN"
 "http://www.w3.org/TR/2001/REC-SVG-20010904/DTD/svg10.dtd">
<svg version="1.0" xmlns="http://www.w3.org/2000/svg"
 width="700.000000pt" height="700.000000pt" viewBox="0 0 700.000000 700.000000"
 preserveAspectRatio="xMidYMid meet">
<metadata>
Created by potrace 1.14, written by Peter Selinger 2001-2017
</metadata>
<g transform="translate(0.000000,700.000000) scale(0.100000,-0.100000)"
fill="#000000" stroke="none">
<path d="M3165 6859 c-949 -89 -1829 -585 -2401 -1355 -286 -384 -497 -853
-593 -1316 -55 -266 -66 -384 -66 -703 0 -285 7 -372 41 -564 l15 -85 -23 -18
c-16 -12 -18 -18 -8 -18 31 -1 40 -19 74 -150 286 -1108 1112 -2000 2191
-2365 356 -121 693 -175 1089 -175 299 0 536 27 797 91 1137 277 2057 1130
2418 2242 113 348 162 665 162 1047 0 356 -45 671 -142 984 l-30 98 30 77 c54
133 63 250 30 361 -26 87 -126 159 -284 205 -49 14 -89 26 -90 28 -6 20 -196
290 -261 372 -113 141 -368 396 -509 509 -529 423 -1154 675 -1825 736 -133
12 -483 11 -615 -1z m3272 -1648 c156 -39 267 -113 300 -199 26 -68 24 -206
-4 -297 -35 -111 -104 -218 -207 -321 -318 -316 -929 -535 -1800 -644 -130
-16 -172 -25 -183 -38 -15 -21 -72 -163 -79 -202 -5 -22 -1 -31 14 -39 29 -16
100 -14 162 5 84 25 187 2 254 -57 77 -67 99 -168 63 -289 -30 -102 -127 -228
-231 -299 -23 -16 -282 -132 -576 -259 -294 -126 -579 -249 -633 -273 l-99
-42 -76 12 c-43 7 -135 15 -207 18 -149 6 -251 -8 -408 -56 -112 -35 -129 -32
-153 24 -29 71 -6 167 57 239 51 57 57 61 249 126 85 29 158 56 162 59 8 7
-239 321 -251 321 -5 0 -281 -135 -615 -300 -334 -165 -611 -300 -616 -300 -5
0 -17 15 -29 33 -27 43 -86 99 -144 135 l-47 30 117 50 118 50 19 62 18 61
201 101 201 100 81 -4 80 -5 213 109 212 110 -42 76 c-23 43 -58 105 -77 138
l-36 62 -1008 -445 -1007 -445 -68 64 c-46 43 -90 74 -135 93 -37 16 -67 33
-67 36 0 4 19 18 42 31 37 20 45 31 56 73 14 50 14 50 120 109 59 32 205 113
326 179 l218 121 64 -17 64 -17 997 516 c665 344 1017 521 1059 532 53 14 72
15 121 4 147 -30 222 -165 163 -288 -39 -79 -91 -115 -399 -269 -160 -80 -291
-148 -291 -151 0 -4 32 -64 71 -135 59 -108 73 -128 87 -120 9 4 222 114 472
244 475 246 509 259 585 238 22 -6 40 -9 42 -7 2 2 -10 25 -26 51 -48 76 -64
135 -59 228 3 67 9 95 35 150 98 206 315 384 698 572 395 194 796 313 1260
374 39 6 165 8 280 6 172 -2 225 -7 292 -24z"/>
<path d="M3688 3422 l-188 -97 0 -157 c0 -87 2 -158 5 -158 10 0 254 142 263
153 13 16 121 357 113 356 -3 0 -90 -44 -193 -97z"/>
<path d="M3165 3168 c-131 -76 -127 -53 -27 -174 l87 -106 8 128 c4 71 6 143
5 161 l-3 31 -70 -40z"/>
</g>
</svg>
